<svg focusable="false" xmlns="http://www.w3.org/2000/svg" xmlns:xlink="http://www.w3.org/1999/xlink"
	 x="0px" y="0px" viewBox="-291 414.9 12 12" style="enable-background:new -291 414.9 12 12;" xml:space="preserve">
<title>Discord</title>
<g>
	<path d="M-281.2,417.3c-0.7-0.3-1.5-0.6-2.3-0.7c-0.1,0.2-0.2,0.4-0.3,0.6c-0.8-0.1-1.7-0.1-2.5,0c-0.1-0.2-0.2-0.4-0.3-0.6
		c-0.8,0.1-1.6,0.4-2.3,0.7c-1.4,2.2-1.8,4.3-1.6,6.4c1,0.7,1.9,1.1,2.8,1.4c0.2-0.3,0.4-0.6,0.6-1c-0.3-0.1-0.6-0.3-0.9-0.5
		c0.1-0.1,0.2-0.1,0.2-0.2c1.8,0.8,3.8,0.8,5.6,0c0.1,0.1,0.2,0.1,0.2,0.2c-0.3,0.2-0.6,0.3-0.9,0.5c0.2,0.3,0.4,0.7,0.6,1
		c0.9-0.3,1.8-0.7,2.8-1.4C-279.3,421.3-279.9,419.2-281.2,417.3z M-286.8,422.4c-0.5,0-1-0.5-1-1.1s0.4-1.1,1-1.1
		c0.6,0,1,0.5,1,1.1C-285.8,421.9-286.3,422.4-286.8,422.4z M-283.2,422.4c-0.5,0-1-0.5-1-1.1s0.4-1.1,1-1.1c0.6,0,1,0.5,1,1.1
		C-282.2,421.9-282.6,422.4-283.2,422.4z"/>
</g>
</svg>
