<?xml version="1.0" encoding="UTF-8"?>
<svg version="1.1" xmlns="http://www.w3.org/2000/svg" width="300" height="49">
<path d="M0 0 C3.68922941 1.37597612 6.96490952 3.05743576 10.34375 5.07421875 C11.34277344 5.65880859 12.34179688 6.24339844 13.37109375 6.84570312 C15.46217237 8.07659398 17.54812044 9.31624141 19.62890625 10.56445312 C20.62792969 11.14517578 21.62695312 11.72589844 22.65625 12.32421875 C24.01459961 13.1299231 24.01459961 13.1299231 25.40039062 13.9519043 C29.42672969 15.57522075 32.02390428 14.32536524 36 13 C36.49230769 19.4 36.49230769 19.4 34 22.4375 C33.34 22.953125 32.68 23.46875 32 24 C33.32 25.32 34.64 26.64 36 28 C34.56542672 28.9834496 33.12722594 29.96160921 31.6875 30.9375 C30.88699219 31.48277344 30.08648438 32.02804688 29.26171875 32.58984375 C27 34 27 34 24 35 C23.91903197 33.54257537 23.86082226 32.08387193 23.8125 30.625 C23.76029297 29.40683594 23.76029297 29.40683594 23.70703125 28.1640625 C23.80371094 27.44992188 23.90039062 26.73578125 24 26 C24.99 25.34 25.98 24.68 27 24 C24.36 22.35 21.72 20.7 19 19 C18.67 27.58 18.34 36.16 18 45 C14.535 43.515 14.535 43.515 11 42 C11 32.43 11 22.86 11 13 C9.02 12.34 7.04 11.68 5 11 C2.125 9.875 2.125 9.875 0 8 C-0.43712796 5.205701 -0.23390169 2.85360062 0 0 Z " fill="#FFFFFF" transform="translate(0,4)"/>
<path d="M0 0 C3.279375 -0.020625 6.55875 -0.04125 9.9375 -0.0625 C10.97253662 -0.071604 12.00757324 -0.08070801 13.07397461 -0.09008789 C14.28839233 -0.09383423 14.28839233 -0.09383423 15.52734375 -0.09765625 C16.77632446 -0.10551147 16.77632446 -0.10551147 18.05053711 -0.11352539 C20 0 20 0 21 1 C21.07319621 3.69654854 21.09242537 6.36691458 21.0625 9.0625 C21.05798828 9.82111328 21.05347656 10.57972656 21.04882812 11.36132812 C21.0370068 13.24091871 21.01907078 15.12046899 21 17 C20.34 17.33 19.68 17.66 19 18 C20.485 22.455 20.485 22.455 22 27 C20.35 26.67 18.7 26.34 17 26 C16.01 23.03 15.02 20.06 14 17 C10.7 17 7.4 17 4 17 C4 20.3 4 23.6 4 27 C2.68 27 1.36 27 0 27 C0 18.09 0 9.18 0 0 Z M4 5 C4 7.64 4 10.28 4 13 C8.29 13 12.58 13 17 13 C17 10.36 17 7.72 17 5 C12.71 5 8.42 5 4 5 Z " fill="#FFFFFF" transform="translate(90,14)"/>
<path d="M0 0 C6.6 0.33 13.2 0.66 20 1 C20 2.32 20 3.64 20 5 C14.72 5 9.44 5 4 5 C4 6.98 4 8.96 4 11 C8.95 11 13.9 11 19 11 C19.33 12.32 19.66 13.64 20 15 C19 16 19 16 15.62109375 16.09765625 C14.22652923 16.09098369 12.83198257 16.07902532 11.4375 16.0625 C10.72658203 16.05798828 10.01566406 16.05347656 9.28320312 16.04882812 C7.52209987 16.03700864 5.76103964 16.01907263 4 16 C4 17.98 4 19.96 4 22 C9.28 22 14.56 22 20 22 C20 23.65 20 25.3 20 27 C13.4 27 6.8 27 0 27 C0 18.09 0 9.18 0 0 Z " fill="#FFFFFF" transform="translate(214,14)"/>
<path d="M0 0 C6.6 0 13.2 0 20 0 C20 5.61 20 11.22 20 17 C19.34 17 18.68 17 18 17 C18.495 18.093125 18.99 19.18625 19.5 20.3125 C21 24 21 24 21 27 C19.68 27 18.36 27 17 27 C16.81566406 26.36191406 16.63132812 25.72382812 16.44140625 25.06640625 C15.51205432 22.41878586 14.64163381 20.28363758 13 18 C9.80182186 16.844032 7.46810008 16.94899853 4 17 C4 20.3 4 23.6 4 27 C2.68 27 1.36 27 0 27 C0 18.09 0 9.18 0 0 Z M4 5 C4 7.64 4 10.28 4 13 C7.96 13 11.92 13 16 13 C16 10.36 16 7.72 16 5 C12.04 5 8.08 5 4 5 Z " fill="#FFFFFF" transform="translate(279,14)"/>
<path d="M0 0 C1.32 0 2.64 0 4 0 C4 7.26 4 14.52 4 22 C7.96 22 11.92 22 16 22 C16 15.07 16 8.14 16 1 C17.32 0.67 18.64 0.34 20 0 C21.74545605 1.74545605 21.1302316 4.16124217 21.1328125 6.53125 C21.13474609 8.21154297 21.13474609 8.21154297 21.13671875 9.92578125 C21.13285156 11.10527344 21.12898438 12.28476562 21.125 13.5 C21.13080078 15.26923828 21.13080078 15.26923828 21.13671875 17.07421875 C21.13542969 18.19441406 21.13414062 19.31460938 21.1328125 20.46875 C21.13168457 21.50451172 21.13055664 22.54027344 21.12939453 23.60742188 C21 26 21 26 20 27 C18.5112814 27.08669432 17.018555 27.10703494 15.52734375 27.09765625 C14.71773193 27.09515869 13.90812012 27.09266113 13.07397461 27.09008789 C12.03893799 27.08098389 11.00390137 27.07187988 9.9375 27.0625 C6.658125 27.041875 3.37875 27.02125 0 27 C0 18.09 0 9.18 0 0 Z " fill="#FFFFFF" transform="translate(122,14)"/>
<path d="M0 0 C0.99 0 1.98 0 3 0 C3 3.63 3 7.26 3 11 C7.29 11 11.58 11 16 11 C16 7.37 16 3.74 16 0 C17.32 0.33 18.64 0.66 20 1 C20 9.25 20 17.5 20 26 C18.68 26.33 17.36 26.66 16 27 C16 23.37 16 19.74 16 16 C11.71 16 7.42 16 3 16 C3 19.63 3 23.26 3 27 C1.68 27 0.36 27 -1 27 C-1.02886537 22.68751391 -1.04675255 18.37505238 -1.0625 14.0625 C-1.07087891 12.83080078 -1.07925781 11.59910156 -1.08789062 10.33007812 C-1.09111328 9.16025391 -1.09433594 7.99042969 -1.09765625 6.78515625 C-1.10289307 5.70113525 -1.10812988 4.61711426 -1.11352539 3.50024414 C-1 1 -1 1 0 0 Z " fill="#FFFFFF" transform="translate(184,14)"/>
<path d="M0 0 C2.05078125 0.03255208 4.1015625 0.06510417 6.15234375 0.09765625 C7.32849509 3.67794673 8.49159896 7.26234416 9.65234375 10.84765625 C9.98621094 11.8634375 10.32007813 12.87921875 10.6640625 13.92578125 C10.97988281 14.90546875 11.29570312 15.88515625 11.62109375 16.89453125 C12.06098633 18.24562988 12.06098633 18.24562988 12.50976562 19.62402344 C13.15234375 22.09765625 13.15234375 22.09765625 13.15234375 26.09765625 C11.83234375 26.09765625 10.51234375 26.09765625 9.15234375 26.09765625 C8.16234375 23.45765625 7.17234375 20.81765625 6.15234375 18.09765625 C2.85234375 17.76765625 -0.44765625 17.43765625 -3.84765625 17.09765625 C-3.99203125 18.21140625 -4.13640625 19.32515625 -4.28515625 20.47265625 C-4.84765625 24.09765625 -4.84765625 24.09765625 -5.84765625 26.09765625 C-7.16765625 26.09765625 -8.48765625 26.09765625 -9.84765625 26.09765625 C-8.8682875 19.88524251 -7.2734989 13.98880192 -5.28515625 8.03515625 C-4.95221558 7.03440063 -4.95221558 7.03440063 -4.61254883 6.01342773 C-2.60948371 0.13792197 -2.60948371 0.13792197 0 0 Z M0.15234375 4.09765625 C-0.50765625 7.06765625 -1.16765625 10.03765625 -1.84765625 13.09765625 C0.46234375 13.09765625 2.77234375 13.09765625 5.15234375 13.09765625 C4.16234375 10.12765625 3.17234375 7.15765625 2.15234375 4.09765625 C1.49234375 4.09765625 0.83234375 4.09765625 0.15234375 4.09765625 Z " fill="#FFFFFF" transform="translate(254.84765625,14.90234375)"/>
<path d="M0 0 C6.27 0 12.54 0 19 0 C19.33 1.65 19.66 3.3 20 5 C17.36 5 14.72 5 12 5 C12 12.26 12 19.52 12 27 C10.68 27 9.36 27 8 27 C8 19.74 8 12.48 8 5 C5.36 5 2.72 5 0 5 C0 3.35 0 1.7 0 0 Z " fill="#FFFFFF" transform="translate(153,14)"/>
<path d="M0 0 C6.27 0 12.54 0 19 0 C19.33 1.65 19.66 3.3 20 5 C17.36 5 14.72 5 12 5 C12 12.26 12 19.52 12 27 C10.68 27 9.36 27 8 27 C8 19.74 8 12.48 8 5 C5.36 5 2.72 5 0 5 C0 3.35 0 1.7 0 0 Z " fill="#FFFFFF" transform="translate(60,14)"/>
<path d="M0 0 C0.99 0.66 1.98 1.32 3 2 C3 2.66 3 3.32 3 4 C-7.37757848 10.33901345 -7.37757848 10.33901345 -11.35546875 9.5078125 C-13.25 8.375 -13.25 8.375 -16 6 C-6.53102292 -1.84572387 -6.53102292 -1.84572387 0 0 Z " fill="#FFFFFF" transform="translate(33,1)"/>
</svg>
