<?xml version="1.0" encoding="utf-8"?>
<!-- Generator: Adobe Illustrator 19.0.0, SVG Export Plug-In . SVG Version: 6.00 Build 0)  -->
<svg version="1.1" id="图层_1" xmlns="http://www.w3.org/2000/svg" xmlns:xlink="http://www.w3.org/1999/xlink" x="0px" y="0px"
	 viewBox="0 0 515 83.5" style="enable-background:new 0 0 515 83.5;" xml:space="preserve">
<g id="XMLID_3_">
	<path id="XMLID_7_" d="M103,25.6h33.6v5.8h-14v37.7h-5.5V31.5h-14V25.6z"/>
	<polygon id="XMLID_59_" points="243.9,25.6 243.9,69.2 210.3,69.2 210.3,25.6 215.8,25.6 215.8,63.4 238.3,63.4 238.3,25.6 	"/>
	<path id="XMLID_16_" d="M262.8,25.6h33.6v5.8h-14v37.7h-5.5V31.5h-14V25.6z"/>
	<path id="XMLID_19_" d="M315.3,25.6h5.5v18.8c0,0,0,0.1,0.1,0.1h22.5c0,0,0.1,0,0.1-0.1V25.6h5.5v43.6h-5.5V50.4h-22.6v10.3
		c0,2.1,0,5,0,8.5h-5.5V25.6z"/>
	<path id="XMLID_31_" d="M401.5,25.7v5.7c0,0,0,0.1,0,0.1h-28.1v13h26.7v5.9h-26.7v13h28v5.8h-33.6V25.6L401.5,25.7
		C401.5,25.6,401.5,25.6,401.5,25.7z"/>
	<path id="XMLID_42_" d="M508.8,53.1h4V25.6h-33.6v43.6h5.6V53.1h17.8c0.4,1.2,2.1,5.1,4,9.4c1.8,4.4,2.8,6.6,2.9,6.7h5.5
		C514.6,68.1,512.7,63.2,508.8,53.1z M507.3,31.5v15.8h-22.5V31.5H507.3C507.1,31.4,507.2,31.4,507.3,31.5
		C507.4,31.4,507.6,31.5,507.3,31.5z"/>
	<path id="XMLID_32_" d="M477.3,31.5L477.3,31.5C477.4,31.4,477.6,31.5,477.3,31.5z"/>
	<path id="XMLID_1_" d="M185.1,53.1h4V25.6h-33.6v43.6h5.6V53.1h17.8c0.4,1.2,2.1,5.1,4,9.4c1.8,4.4,2.8,6.6,2.9,6.7h5.5
		C190.9,68.1,189,63.2,185.1,53.1z M183.6,31.5v15.8h-22.5V31.5H183.6C183.4,31.4,183.5,31.4,183.6,31.5
		C183.7,31.4,183.9,31.5,183.6,31.5z"/>
	<path id="XMLID_29_" d="M456.6,57.9l-8.5-27l-1.7-5.2l0,0h-12l0,0l-1.5,4.8c-1.4,4.3-2.4,7.6-3.5,11.1c-0.3,0.9-3.3,10.1-8.8,27.6
		h6.2l4.5-14.7h18.1v0l4.5,14.6h6.2L456.6,57.9z M447.6,48.8h-14.6l2.9-9.3c1.1-3.7,1.8-6.2,2.4-8h3.8
		C443.5,35.8,446,43.4,447.6,48.8L447.6,48.8z"/>
</g>
<g id="XMLID_5_">
	<polygon id="XMLID_17_" points="61.4,29.6 61.4,41 50.8,47.4 50.8,47.4 31,36.1 31,83.5 19.6,76.9 19.6,29.6 0,18.3 0,7 50.8,36 	
		"/>
	<polygon id="XMLID_12_" points="61.4,54.3 42.5,65.5 42.5,52.3 50.8,47.4 50.8,47.4 	"/>
	<polygon id="XMLID_8_" points="61.4,6.5 42.3,17.9 30.7,11.5 50.1,0 	"/>
</g>
</svg>
